<svg id="Capa_1" data-name="Capa 1" xmlns="http://www.w3.org/2000/svg" viewBox="0 0 97 106.47"><defs><style>.cls-1{fill:#212529;}</style></defs><title>icono</title><path class="cls-1" d="M62,18.64a33.57,33.57,0,0,1,18.43,19.2,38.44,38.44,0,0,1,2.49,13.82,45.54,45.54,0,0,1-2.91,17,34.92,34.92,0,0,1-7.92,12.2,32.76,32.76,0,0,1-11.71,7.39A40.76,40.76,0,0,1,46,90.7a61.57,61.57,0,0,1-7.82-.52,42.63,42.63,0,0,1-8.2-1.9,37.49,37.49,0,0,1-8-3.78,32,32,0,0,1-7.26-6.27l6.31-7.79A4.5,4.5,0,0,1,25,68.55a8.29,8.29,0,0,1,3.75.91c1.19.61,2.5,1.29,3.92,2a34.35,34.35,0,0,0,4.87,2,20.69,20.69,0,0,0,6.52.91,16.5,16.5,0,0,0,11.57-4.1q4.48-4.11,5.54-13.22H19.23a6.88,6.88,0,0,1-2.42-.35,2.94,2.94,0,0,1-1.51-1.26,6.37,6.37,0,0,1-.77-2.45,30.77,30.77,0,0,1-.21-4A38.47,38.47,0,0,1,16.74,35a29.6,29.6,0,0,1,6.73-10.48A28.82,28.82,0,0,1,33.77,18,37.58,37.58,0,0,1,47,15.76,37.22,37.22,0,0,1,62,18.64ZM40.61,32a10.88,10.88,0,0,0-4,3.12,12.18,12.18,0,0,0-2.18,4.38,19.33,19.33,0,0,0-.66,5H60.94q-1.12-6.67-4.63-10.21C54,32,50.73,30.76,46.57,30.76A13.44,13.44,0,0,0,40.61,32Z"/></svg>