<svg id="Capa_1" data-name="Capa 1" xmlns="http://www.w3.org/2000/svg" viewBox="0 0 1131 166"><defs><style>.cls-1{fill:#212529;}</style></defs><title>logo-negro</title><path class="cls-1" d="M67.57,32.67A47.69,47.69,0,0,1,93.77,60,54.73,54.73,0,0,1,97.3,79.58q0,13.74-4.13,24.1A49.5,49.5,0,0,1,81.91,121a46.75,46.75,0,0,1-16.63,10.51,57.9,57.9,0,0,1-20.36,3.54,87.11,87.11,0,0,1-11.11-.75,62,62,0,0,1-11.65-2.69,53.89,53.89,0,0,1-11.36-5.38A45.82,45.82,0,0,1,.5,117.33l9-11.06A6.39,6.39,0,0,1,15,103.58a11.65,11.65,0,0,1,5.33,1.3c1.69.86,3.55,1.83,5.57,2.89a46.82,46.82,0,0,0,6.92,2.88,29.24,29.24,0,0,0,9.27,1.3q10,0,16.43-5.83t7.87-18.77H6.87a9.89,9.89,0,0,1-3.44-.5,4.23,4.23,0,0,1-2.14-1.79A9,9,0,0,1,.2,81.57,43.33,43.33,0,0,1-.1,75.9a54.62,54.62,0,0,1,3.43-20A42.3,42.3,0,0,1,12.9,41a40.69,40.69,0,0,1,14.64-9.26,53,53,0,0,1,18.77-3.19A52.93,52.93,0,0,1,67.57,32.67ZM37.25,51.6A15.55,15.55,0,0,0,31.62,56a17.38,17.38,0,0,0-3.09,6.22,27.34,27.34,0,0,0-.94,7.17H66.13Q64.54,60,59.56,54.93t-13.85-5A19.19,19.19,0,0,0,37.25,51.6Z"/><path class="cls-1" d="M181.15,52.79a8,8,0,0,1-2.53,2.69,6.71,6.71,0,0,1-3.44.8,11,11,0,0,1-4.38-1l-4.73-2a52.4,52.4,0,0,0-5.73-2,25.62,25.62,0,0,0-7.27-1q-5.88,0-9,2.24a7.22,7.22,0,0,0-3.14,6.23,6.25,6.25,0,0,0,2,4.78,18.66,18.66,0,0,0,5.43,3.33,71.49,71.49,0,0,0,7.67,2.74q4.27,1.3,8.76,2.89a77.5,77.5,0,0,1,8.77,3.74,32.47,32.47,0,0,1,7.66,5.27,23.59,23.59,0,0,1,5.43,7.62,25.86,25.86,0,0,1,2,10.76A35.5,35.5,0,0,1,185.94,114a30.08,30.08,0,0,1-8.32,11.16A39.39,39.39,0,0,1,164,132.47a61.61,61.61,0,0,1-18.67,2.59,57.2,57.2,0,0,1-10.56-1,72,72,0,0,1-10.2-2.69,55.74,55.74,0,0,1-9.12-4,39.52,39.52,0,0,1-7.17-5L115.42,111a10.26,10.26,0,0,1,3.09-3.13,8.52,8.52,0,0,1,4.68-1.15,9.72,9.72,0,0,1,4.83,1.2l4.63,2.59a37.73,37.73,0,0,0,5.83,2.58,25.14,25.14,0,0,0,8.41,1.2,21.33,21.33,0,0,0,6.08-.75,10.43,10.43,0,0,0,4-2,8,8,0,0,0,2.89-6.17,6.73,6.73,0,0,0-2.09-5.08,18.06,18.06,0,0,0-5.48-3.44,67.39,67.39,0,0,0-7.72-2.69c-2.88-.83-5.82-1.77-8.81-2.84a70.28,70.28,0,0,1-8.81-3.83,30.1,30.1,0,0,1-7.72-5.68,26.23,26.23,0,0,1-5.48-8.41,31,31,0,0,1-2.09-12.05,31.29,31.29,0,0,1,2.54-12.5,29,29,0,0,1,7.62-10.41,37.3,37.3,0,0,1,12.74-7.12,55.15,55.15,0,0,1,17.93-2.64,57.19,57.19,0,0,1,10.81,1,55.6,55.6,0,0,1,9.81,2.78,47.09,47.09,0,0,1,8.36,4.24,39.58,39.58,0,0,1,6.68,5.33Z"/><path class="cls-1" d="M245.89,135.06a36.33,36.33,0,0,1-13-2.15,25.07,25.07,0,0,1-15.29-15.58,36.79,36.79,0,0,1-2-12.45V51.5h-8.76a5.58,5.58,0,0,1-5.78-6.08V33.37l16.43-3.19L223.58,5c.8-3.19,3-4.78,6.77-4.78h16.14V30.38h25.09V51.5H246.49v51.29a9.65,9.65,0,0,0,1.74,5.92,5.89,5.89,0,0,0,5,2.34,10,10,0,0,0,2.84-.34,12.11,12.11,0,0,0,2-.8c.56-.3,1.09-.56,1.59-.8a4.14,4.14,0,0,1,1.75-.35,3.63,3.63,0,0,1,2.24.65,8.1,8.1,0,0,1,1.74,2l9.36,14.64a42.4,42.4,0,0,1-13.44,6.72A53.26,53.26,0,0,1,245.89,135.06Z"/><path class="cls-1" d="M337.51,28.59a53.1,53.1,0,0,1,18.78,3.19A40.86,40.86,0,0,1,370.93,41a42.28,42.28,0,0,1,9.56,14.89,54.62,54.62,0,0,1,3.44,20,43.33,43.33,0,0,1-.3,5.67,9,9,0,0,1-1.1,3.49,4.15,4.15,0,0,1-2.14,1.79,9.85,9.85,0,0,1-3.44.5H317.4q1.49,12.95,7.86,18.77T341.7,112a29.22,29.22,0,0,0,9.26-1.3,46.37,46.37,0,0,0,6.92-2.88c2-1.06,3.89-2,5.58-2.89a11.62,11.62,0,0,1,5.33-1.3,6.38,6.38,0,0,1,5.57,2.69l9,11.06A45.87,45.87,0,0,1,373,126.24a54.05,54.05,0,0,1-11.35,5.38A62.14,62.14,0,0,1,350,134.31a87,87,0,0,1-11.1.75,57.92,57.92,0,0,1-20.37-3.54A46.84,46.84,0,0,1,301.91,121a49.34,49.34,0,0,1-11.25-17.33q-4.14-10.35-4.14-24.1A54.52,54.52,0,0,1,290.06,60a47.72,47.72,0,0,1,26.19-27.29A53,53,0,0,1,337.51,28.59Zm.6,21.31q-8.87,0-13.84,5T317.7,69.42h38.54a27.35,27.35,0,0,0-.95-7.17A17.38,17.38,0,0,0,352.2,56a15.51,15.51,0,0,0-5.62-4.43A19.26,19.26,0,0,0,338.11,49.9Z"/><path class="cls-1" d="M405.64,133.46V30.18h19.12a8.57,8.57,0,0,1,4.83,1.3,7,7,0,0,1,2.74,3.88l1.79,6a74.55,74.55,0,0,1,6.17-5.18,35.54,35.54,0,0,1,6.83-4A40,40,0,0,1,455,29.54a41.77,41.77,0,0,1,9.22-.95,36.16,36.16,0,0,1,15,2.94,31.25,31.25,0,0,1,11,8.16A35.17,35.17,0,0,1,497,52.14a51.61,51.61,0,0,1,2.29,15.69v65.63H468.38V67.83q0-7.56-3.49-11.8t-10.25-4.24a21.46,21.46,0,0,0-9.56,2.2,37.26,37.26,0,0,0-8.57,5.87v73.6Z"/><path class="cls-1" d="M571.16,28.59a59.79,59.79,0,0,1,21.41,3.68,47,47,0,0,1,16.58,10.56,47.52,47.52,0,0,1,10.76,16.68,60.13,60.13,0,0,1,3.84,22.06,61.14,61.14,0,0,1-3.84,22.26,47.79,47.79,0,0,1-10.76,16.83,47.08,47.08,0,0,1-16.58,10.66,58.93,58.93,0,0,1-21.41,3.74,59.6,59.6,0,0,1-21.56-3.74,48,48,0,0,1-16.73-10.66A46.92,46.92,0,0,1,522,103.83a61.14,61.14,0,0,1-3.84-22.26A60.13,60.13,0,0,1,522,59.51a46.65,46.65,0,0,1,10.86-16.68A47.89,47.89,0,0,1,549.6,32.27,60.47,60.47,0,0,1,571.16,28.59Zm0,83.56q10.65,0,15.69-7.52t5-22.86q0-15.33-5-22.81T571.16,51.5q-11,0-16,7.46T550,81.77q0,15.35,5.08,22.86T571.16,112.15Z"/><path class="cls-1" d="M644.66,166.23v-136h19.12a8.57,8.57,0,0,1,4.83,1.3,6.93,6.93,0,0,1,2.74,3.88l2.29,7.57a51.62,51.62,0,0,1,6.42-6,42.32,42.32,0,0,1,7.37-4.64,41.07,41.07,0,0,1,8.47-3,42.12,42.12,0,0,1,9.91-1.1,31.81,31.81,0,0,1,14.94,3.59A34.46,34.46,0,0,1,732.6,42.13a52.31,52.31,0,0,1,7.82,16.59A80.22,80.22,0,0,1,743.26,81,68.56,68.56,0,0,1,740,102.49,54.24,54.24,0,0,1,731,119.62,41.77,41.77,0,0,1,717,131a39.44,39.44,0,0,1-18,4.09,35.34,35.34,0,0,1-13.55-2.29,36.91,36.91,0,0,1-10-6.18v39.64ZM695.05,51.79a26.66,26.66,0,0,0-6.12.65,22.7,22.7,0,0,0-5.08,1.85,18.78,18.78,0,0,0-4.33,3,45.62,45.62,0,0,0-4,4.23v43.83a19.38,19.38,0,0,0,7.57,5.42,24,24,0,0,0,8.57,1.55,18,18,0,0,0,7.86-1.7,16,16,0,0,0,6.23-5.42,28.81,28.81,0,0,0,4.13-9.71A60.62,60.62,0,0,0,711.39,81a66.67,66.67,0,0,0-1.2-13.75,28.29,28.29,0,0,0-3.34-9,12.89,12.89,0,0,0-5.13-4.93A14.63,14.63,0,0,0,695.05,51.79Z"/><path class="cls-1" d="M808,28.59a53,53,0,0,1,18.77,3.19A40.69,40.69,0,0,1,841.4,41,42.14,42.14,0,0,1,851,55.93a54.41,54.41,0,0,1,3.44,20,43.33,43.33,0,0,1-.3,5.67A9,9,0,0,1,853,85.06a4.23,4.23,0,0,1-2.14,1.79,9.89,9.89,0,0,1-3.44.5H787.87q1.5,12.95,7.87,18.77T812.17,112a29.24,29.24,0,0,0,9.27-1.3,47.28,47.28,0,0,0,6.92-2.88c2-1.06,3.88-2,5.57-2.89a11.65,11.65,0,0,1,5.33-1.3,6.39,6.39,0,0,1,5.58,2.69l9,11.06a45.82,45.82,0,0,1-10.3,8.91,53.89,53.89,0,0,1-11.36,5.38,62,62,0,0,1-11.65,2.69,87.23,87.23,0,0,1-11.11.75A57.9,57.9,0,0,1,789,131.52,46.88,46.88,0,0,1,772.38,121a49.48,49.48,0,0,1-11.25-17.33Q757,93.33,757,79.58A54.73,54.73,0,0,1,760.53,60a47.69,47.69,0,0,1,26.2-27.29A52.93,52.93,0,0,1,808,28.59Zm.6,21.31q-8.87,0-13.85,5t-6.57,14.49h38.54a27.34,27.34,0,0,0-.94-7.17A17.38,17.38,0,0,0,822.68,56a15.55,15.55,0,0,0-5.63-4.43A19.19,19.19,0,0,0,808.59,49.9Z"/><path class="cls-1" d="M911.57,18.9a16.25,16.25,0,0,1-1.5,6.92A18.24,18.24,0,0,1,906,31.5a19.94,19.94,0,0,1-6,3.88,18.74,18.74,0,0,1-7.32,1.44,17.43,17.43,0,0,1-7.07-1.44,19.69,19.69,0,0,1-5.82-3.88,17.82,17.82,0,0,1-4-5.68,16.82,16.82,0,0,1-1.44-6.92,17.43,17.43,0,0,1,1.44-7.07,18.13,18.13,0,0,1,4-5.78,18.6,18.6,0,0,1,5.82-3.88,17.91,17.91,0,0,1,7.07-1.4A19.27,19.27,0,0,1,900,2.17a18.86,18.86,0,0,1,6,3.88,18.55,18.55,0,0,1,4.08,5.78A16.83,16.83,0,0,1,911.57,18.9ZM908,50.18v83.28H877.11V50.18Z"/><path class="cls-1" d="M1011.36,54.68a17,17,0,0,1-2.69,2.69,5.89,5.89,0,0,1-3.69,1,8,8,0,0,1-4.13-1.1l-4.13-2.44a31.88,31.88,0,0,0-5.38-2.44,23.2,23.2,0,0,0-7.67-1.09,21.44,21.44,0,0,0-9.81,2.09,18.14,18.14,0,0,0-6.82,6,27.56,27.56,0,0,0-4,9.52,57,57,0,0,0-1.29,12.69q0,14.85,5.73,22.81a18.37,18.37,0,0,0,15.78,8,22,22,0,0,0,8.52-1.35,26.06,26.06,0,0,0,5.33-3l4-3a7.45,7.45,0,0,1,4.63-1.4,6.39,6.39,0,0,1,5.58,2.69l9,11.06a48.84,48.84,0,0,1-10.06,8.91,50.85,50.85,0,0,1-10.8,5.38,56.35,56.35,0,0,1-11.11,2.69,81.48,81.48,0,0,1-10.85.75,46.59,46.59,0,0,1-18.08-3.59,44.31,44.31,0,0,1-15.14-10.41,49.8,49.8,0,0,1-10.36-16.78,63,63,0,0,1-3.83-22.71,63.88,63.88,0,0,1,3.33-20.86,47.42,47.42,0,0,1,9.87-16.83,45.8,45.8,0,0,1,16.13-11.21,56.6,56.6,0,0,1,22.26-4.08A54.25,54.25,0,0,1,1003,32.47a51.1,51.1,0,0,1,16.53,11.36Z"/><path class="cls-1" d="M1040.67,133.46V68.93a46.37,46.37,0,0,1,2.79-16.34,37,37,0,0,1,8-12.9,36.3,36.3,0,0,1,12.74-8.46,44.7,44.7,0,0,1,16.89-3,73.09,73.09,0,0,1,24.45,4,62.66,62.66,0,0,1,20.76,12.31l-5.58,9.66a11.52,11.52,0,0,1-3.53,3.83,9.33,9.33,0,0,1-5.43,1.54,14.7,14.7,0,0,1-6.17-1.19c-1.73-.8-3.51-1.69-5.33-2.69a40.2,40.2,0,0,0-6.23-2.69,28,28,0,0,0-9-1.2q-6.87,0-10.61,4.08t-3.73,13.21v4.43q17.73,0,29.38,3.2t18.52,7.94q6.87,4.74,9.66,10.54a25.94,25.94,0,0,1,2.79,11.29,32.35,32.35,0,0,1-2.19,12.34,24.07,24.07,0,0,1-6.22,8.94,26.89,26.89,0,0,1-9.81,5.45,42.11,42.11,0,0,1-12.85,1.85,50.6,50.6,0,0,1-9.61-.85,37.1,37.1,0,0,1-8.17-2.59,47.44,47.44,0,0,1-7.42-4.23q-3.58-2.49-7.47-5.78l-2.19,5.68q-1.5,3.78-3.73,5a14.59,14.59,0,0,1-6.63,1.19Zm58.06-21q2.89-2.16,2.89-7.49a9.88,9.88,0,0,0-1.34-5,11.56,11.56,0,0,0-4.83-4.12,37,37,0,0,0-9.46-3,79.64,79.64,0,0,0-15.24-1.21v14.15a31.87,31.87,0,0,0,9.06,6.77,24.56,24.56,0,0,0,10.46,2.09Q1095.85,114.64,1098.73,112.48Z"/></svg>