<?xml version="1.0" encoding="utf-8"?>
<!-- Generator: Adobe Illustrator 23.0.1, SVG Export Plug-In . SVG Version: 6.00 Build 0)  -->
<svg version="1.1" xmlns="http://www.w3.org/2000/svg" xmlns:xlink="http://www.w3.org/1999/xlink" x="0px" y="0px"
	 viewBox="0 0 1131 166" style="enable-background:new 0 0 1131 166;" xml:space="preserve">
<style type="text/css">
	.st0{fill:#1A1A1A;}
	.st1{fill:#FFFFFF;}
	.st2{fill:#212529;}
</style>
<g id="Capa_1">
	<g>
		<g>
			<g>
				<path class="st1" d="M67.57,32.67c6.27,2.72,11.62,6.41,16.03,11.06c4.42,4.65,7.8,10.06,10.16,16.23
					c2.36,6.18,3.54,12.72,3.54,19.62c0,9.16-1.38,17.2-4.13,24.1c-2.75,6.91-6.51,12.68-11.25,17.33
					c-4.75,4.65-10.29,8.15-16.63,10.51c-6.34,2.36-13.13,3.54-20.37,3.54c-3.52,0-7.22-0.25-11.1-0.75
					c-3.88-0.5-7.77-1.39-11.65-2.69c-3.88-1.29-7.67-3.09-11.35-5.38c-3.68-2.29-7.12-5.26-10.31-8.91l8.96-11.05
					c1.26-1.79,3.12-2.69,5.58-2.69c1.86,0,3.63,0.43,5.33,1.29c1.69,0.86,3.55,1.83,5.58,2.89c2.03,1.06,4.33,2.03,6.92,2.89
					c2.59,0.87,5.68,1.29,9.26,1.29c6.71,0,12.19-1.94,16.43-5.83c4.25-3.88,6.87-10.14,7.87-18.77H6.87c-1.39,0-2.54-0.16-3.44-0.5
					c-0.9-0.33-1.61-0.93-2.14-1.79c-0.53-0.86-0.9-2.02-1.1-3.48s-0.3-3.35-0.3-5.68c0-7.44,1.15-14.09,3.44-19.97
					c2.29-5.88,5.48-10.84,9.56-14.89c4.08-4.05,8.96-7.14,14.64-9.26c5.68-2.12,11.94-3.19,18.77-3.19
					C54.21,28.59,61.3,29.95,67.57,32.67z M37.25,51.6c-2.32,1.13-4.2,2.61-5.63,4.43c-1.43,1.83-2.46,3.9-3.09,6.22
					c-0.63,2.33-0.95,4.71-0.95,7.17h38.54c-1.06-6.31-3.25-11.14-6.57-14.49c-3.32-3.35-7.93-5.03-13.84-5.03
					C42.39,49.9,39.57,50.47,37.25,51.6z"/>
			</g>
			<g>
				<path class="st1" d="M181.15,52.79c-0.8,1.26-1.64,2.16-2.54,2.69s-2.04,0.8-3.44,0.8c-1.46,0-2.92-0.31-4.38-0.95
					c-1.46-0.63-3.04-1.31-4.73-2.04c-1.69-0.73-3.6-1.41-5.73-2.04c-2.13-0.63-4.55-0.95-7.27-0.95c-3.92,0-6.92,0.75-9.01,2.24
					c-2.09,1.49-3.14,3.57-3.14,6.22c0,1.93,0.68,3.52,2.04,4.78c1.36,1.26,3.17,2.38,5.43,3.34c2.26,0.96,4.81,1.88,7.67,2.74
					c2.85,0.86,5.78,1.83,8.76,2.89c2.99,1.06,5.91,2.31,8.76,3.74c2.85,1.43,5.41,3.19,7.67,5.28c2.26,2.09,4.07,4.63,5.43,7.62
					c1.36,2.99,2.04,6.57,2.04,10.76c0,5.11-0.93,9.83-2.79,14.14c-1.86,4.32-4.63,8.04-8.32,11.15c-3.69,3.12-8.23,5.54-13.64,7.27
					c-5.41,1.72-11.64,2.59-18.67,2.59c-3.52,0-7.04-0.33-10.56-1c-3.52-0.66-6.92-1.56-10.21-2.69c-3.29-1.13-6.32-2.47-9.11-4.03
					c-2.79-1.56-5.18-3.24-7.17-5.03l7.17-11.36c0.86-1.33,1.89-2.37,3.09-3.14c1.2-0.76,2.75-1.14,4.68-1.14
					c1.79,0,3.4,0.4,4.83,1.2s2.97,1.66,4.63,2.59c1.66,0.93,3.6,1.79,5.83,2.59c2.22,0.8,5.03,1.2,8.42,1.2
					c2.39,0,4.41-0.25,6.08-0.75c1.66-0.5,2.99-1.18,3.98-2.04c1-0.86,1.73-1.82,2.19-2.89c0.46-1.06,0.7-2.16,0.7-3.29
					c0-2.06-0.7-3.75-2.09-5.08c-1.39-1.33-3.22-2.47-5.48-3.44c-2.26-0.96-4.83-1.86-7.72-2.69c-2.89-0.83-5.83-1.78-8.81-2.84
					c-2.99-1.06-5.93-2.34-8.81-3.83c-2.89-1.49-5.46-3.39-7.72-5.68c-2.26-2.29-4.08-5.09-5.48-8.42
					c-1.39-3.32-2.09-7.34-2.09-12.05c0-4.38,0.85-8.55,2.54-12.5c1.69-3.95,4.23-7.42,7.62-10.41c3.39-2.99,7.63-5.36,12.75-7.12
					c5.11-1.76,11.09-2.64,17.93-2.64c3.72,0,7.32,0.33,10.81,1c3.49,0.66,6.76,1.59,9.81,2.79c3.05,1.2,5.84,2.61,8.37,4.23
					c2.52,1.63,4.75,3.4,6.67,5.33L181.15,52.79z"/>
			</g>
			<g>
				<path class="st1" d="M245.89,135.06c-4.91,0-9.25-0.71-13-2.14c-3.75-1.43-6.91-3.45-9.46-6.07c-2.56-2.62-4.5-5.79-5.83-9.51
					c-1.33-3.72-1.99-7.87-1.99-12.45V51.5h-8.76c-1.59,0-2.96-0.51-4.08-1.54s-1.69-2.54-1.69-4.53V33.37l16.43-3.19l6.08-25.2
					c0.8-3.19,3.05-4.78,6.77-4.78h16.13v30.18h25.1V51.5h-25.1v51.29c0,2.39,0.58,4.37,1.74,5.93c1.16,1.56,2.84,2.34,5.03,2.34
					c1.13,0,2.07-0.12,2.84-0.35c0.76-0.23,1.43-0.5,1.99-0.8c0.56-0.3,1.1-0.56,1.59-0.8c0.5-0.23,1.08-0.35,1.74-0.35
					c0.93,0,1.68,0.21,2.24,0.65c0.56,0.43,1.15,1.11,1.74,2.04l9.36,14.64c-3.98,2.99-8.47,5.23-13.45,6.72
					C256.35,134.31,251.2,135.06,245.89,135.06z"/>
			</g>
			<g>
				<path class="st1" d="M337.51,28.59c6.84,0,13.1,1.06,18.77,3.19c5.68,2.13,10.56,5.21,14.64,9.26
					c4.08,4.05,7.27,9.01,9.56,14.89c2.29,5.88,3.44,12.53,3.44,19.97c0,2.32-0.1,4.22-0.3,5.68s-0.57,2.62-1.1,3.48
					c-0.53,0.87-1.25,1.46-2.14,1.79c-0.9,0.33-2.04,0.5-3.44,0.5H317.4c1,8.63,3.62,14.89,7.87,18.77
					c4.25,3.88,9.73,5.83,16.43,5.83c3.59,0,6.67-0.43,9.26-1.29c2.59-0.86,4.9-1.82,6.92-2.89c2.02-1.06,3.88-2.03,5.58-2.89
					c1.69-0.86,3.47-1.29,5.33-1.29c2.46,0,4.32,0.9,5.58,2.69l8.96,11.05c-3.19,3.65-6.62,6.62-10.31,8.91
					c-3.68,2.29-7.47,4.08-11.35,5.38s-7.77,2.19-11.65,2.69c-3.88,0.5-7.59,0.75-11.1,0.75c-7.24,0-14.03-1.18-20.37-3.54
					c-6.34-2.36-11.89-5.86-16.63-10.51c-4.75-4.65-8.5-10.42-11.25-17.33c-2.76-6.9-4.13-14.94-4.13-24.1
					c0-6.9,1.18-13.45,3.54-19.62c2.36-6.17,5.74-11.59,10.16-16.23c4.42-4.65,9.76-8.33,16.04-11.06
					C322.53,29.95,329.61,28.59,337.51,28.59z M338.11,49.9c-5.91,0-10.52,1.68-13.84,5.03c-3.32,3.35-5.51,8.18-6.57,14.49h38.54
					c0-2.46-0.32-4.85-0.95-7.17c-0.63-2.32-1.66-4.4-3.09-6.22c-1.43-1.82-3.3-3.3-5.63-4.43C344.25,50.47,341.43,49.9,338.11,49.9
					z"/>
			</g>
			<g>
				<path class="st1" d="M405.64,133.46V30.18h19.12c1.92,0,3.54,0.43,4.83,1.29c1.29,0.87,2.21,2.16,2.74,3.88l1.79,5.98
					c1.99-1.86,4.05-3.59,6.17-5.18c2.12-1.59,4.4-2.94,6.82-4.03c2.42-1.1,5.04-1.96,7.87-2.59c2.82-0.63,5.89-0.95,9.21-0.95
					c5.64,0,10.64,0.98,14.99,2.94c4.35,1.96,8.02,4.68,11,8.17c2.99,3.49,5.24,7.64,6.77,12.45c1.53,4.82,2.29,10.04,2.29,15.69
					v65.63h-30.88V67.83c0-5.04-1.16-8.98-3.49-11.8c-2.33-2.82-5.74-4.23-10.26-4.23c-3.39,0-6.57,0.73-9.56,2.19
					c-2.99,1.46-5.84,3.42-8.57,5.88v73.6H405.64z"/>
			</g>
			<g>
				<path class="st1" d="M571.16,28.59c7.83,0,14.97,1.23,21.41,3.68c6.44,2.46,11.97,5.98,16.58,10.56
					c4.61,4.58,8.2,10.14,10.76,16.68c2.55,6.54,3.83,13.89,3.83,22.06c0,8.23-1.28,15.65-3.83,22.26
					c-2.56,6.61-6.14,12.22-10.76,16.83c-4.62,4.62-10.14,8.17-16.58,10.66c-6.44,2.49-13.58,3.74-21.41,3.74
					c-7.9,0-15.09-1.25-21.56-3.74c-6.47-2.49-12.05-6.04-16.73-10.66c-4.68-4.61-8.3-10.22-10.86-16.83
					c-2.56-6.61-3.83-14.03-3.83-22.26c0-8.17,1.28-15.52,3.83-22.06c2.56-6.54,6.17-12.1,10.86-16.68
					c4.68-4.58,10.26-8.1,16.73-10.56C556.07,29.82,563.26,28.59,571.16,28.59z M571.16,112.15c7.1,0,12.33-2.5,15.69-7.52
					c3.35-5.01,5.03-12.63,5.03-22.86s-1.68-17.83-5.03-22.81c-3.35-4.98-8.58-7.47-15.69-7.47c-7.3,0-12.65,2.49-16.04,7.47
					c-3.39,4.98-5.08,12.58-5.08,22.81s1.69,17.84,5.08,22.86C558.51,109.64,563.85,112.15,571.16,112.15z"/>
			</g>
			<g>
				<path class="st1" d="M644.66,166.23V30.18h19.12c1.92,0,3.54,0.43,4.83,1.29c1.29,0.87,2.21,2.16,2.74,3.88l2.29,7.57
					c1.99-2.19,4.13-4.18,6.42-5.98c2.29-1.79,4.75-3.34,7.37-4.63s5.44-2.31,8.47-3.04c3.02-0.73,6.32-1.1,9.91-1.1
					c5.38,0,10.36,1.2,14.94,3.58c4.58,2.39,8.53,5.84,11.85,10.36c3.32,4.52,5.93,10.04,7.82,16.58
					c1.89,6.54,2.84,13.96,2.84,22.26c0,7.77-1.08,14.94-3.24,21.51c-2.16,6.57-5.18,12.29-9.06,17.13
					c-3.88,4.85-8.53,8.63-13.94,11.35c-5.41,2.72-11.4,4.08-17.98,4.08c-5.38,0-9.89-0.77-13.54-2.29
					c-3.65-1.53-6.97-3.59-9.96-6.18v39.64H644.66z M695.05,51.79c-2.26,0-4.3,0.22-6.13,0.65c-1.83,0.43-3.52,1.05-5.08,1.84
					c-1.56,0.8-3,1.81-4.33,3.04c-1.33,1.23-2.66,2.64-3.98,4.23v43.82c2.32,2.59,4.85,4.4,7.57,5.43c2.72,1.03,5.58,1.54,8.57,1.54
					c2.85,0,5.48-0.56,7.87-1.69c2.39-1.13,4.46-2.94,6.22-5.43c1.76-2.49,3.14-5.73,4.13-9.71c1-3.98,1.49-8.83,1.49-14.54
					c0-5.44-0.4-10.03-1.2-13.74s-1.91-6.72-3.34-9.01s-3.14-3.93-5.13-4.93C699.73,52.29,697.51,51.79,695.05,51.79z"/>
			</g>
			<g>
				<path class="st1" d="M807.99,28.59c6.84,0,13.1,1.06,18.77,3.19c5.68,2.13,10.56,5.21,14.64,9.26
					c4.08,4.05,7.27,9.01,9.56,14.89c2.29,5.88,3.44,12.53,3.44,19.97c0,2.32-0.1,4.22-0.3,5.68s-0.57,2.62-1.1,3.48
					c-0.53,0.87-1.25,1.46-2.14,1.79c-0.9,0.33-2.04,0.5-3.44,0.5h-59.56c1,8.63,3.62,14.89,7.87,18.77
					c4.25,3.88,9.73,5.83,16.43,5.83c3.59,0,6.67-0.43,9.26-1.29c2.59-0.86,4.9-1.82,6.92-2.89c2.02-1.06,3.88-2.03,5.58-2.89
					c1.69-0.86,3.47-1.29,5.33-1.29c2.46,0,4.32,0.9,5.58,2.69l8.96,11.05c-3.19,3.65-6.62,6.62-10.31,8.91
					c-3.68,2.29-7.47,4.08-11.35,5.38s-7.77,2.19-11.65,2.69c-3.88,0.5-7.59,0.75-11.1,0.75c-7.24,0-14.03-1.18-20.37-3.54
					c-6.34-2.36-11.89-5.86-16.63-10.51c-4.75-4.65-8.5-10.42-11.25-17.33c-2.76-6.9-4.13-14.94-4.13-24.1
					c0-6.9,1.18-13.45,3.54-19.62c2.36-6.17,5.74-11.59,10.16-16.23c4.42-4.65,9.76-8.33,16.04-11.06
					C793,29.95,800.09,28.59,807.99,28.59z M808.59,49.9c-5.91,0-10.52,1.68-13.84,5.03c-3.32,3.35-5.51,8.18-6.57,14.49h38.54
					c0-2.46-0.32-4.85-0.95-7.17c-0.63-2.32-1.66-4.4-3.09-6.22c-1.43-1.82-3.3-3.3-5.63-4.43C814.73,50.47,811.91,49.9,808.59,49.9
					z"/>
			</g>
			<g>
				<path class="st1" d="M911.57,18.9c0,2.46-0.5,4.76-1.49,6.92s-2.36,4.05-4.08,5.68c-1.73,1.63-3.74,2.92-6.03,3.88
					c-2.29,0.96-4.73,1.44-7.32,1.44c-2.52,0-4.88-0.48-7.07-1.44c-2.19-0.96-4.13-2.26-5.83-3.88c-1.69-1.63-3.02-3.52-3.98-5.68
					c-0.96-2.16-1.44-4.46-1.44-6.92c0-2.52,0.48-4.88,1.44-7.07c0.96-2.19,2.29-4.12,3.98-5.78s3.63-2.96,5.83-3.88
					s4.55-1.39,7.07-1.39c2.59,0,5.03,0.46,7.32,1.39c2.29,0.93,4.3,2.22,6.03,3.88c1.73,1.66,3.09,3.58,4.08,5.78
					S911.57,16.38,911.57,18.9z M907.98,50.18v83.28h-30.88V50.18H907.98z"/>
			</g>
			<g>
				<path class="st1" d="M1011.36,54.68c-0.93,1.13-1.83,2.03-2.69,2.69c-0.86,0.66-2.09,0.99-3.68,0.99
					c-1.53,0-2.91-0.36-4.13-1.09c-1.23-0.73-2.61-1.54-4.13-2.44c-1.53-0.9-3.32-1.71-5.38-2.44c-2.06-0.73-4.62-1.1-7.67-1.1
					c-3.79,0-7.06,0.7-9.81,2.09c-2.76,1.39-5.03,3.39-6.82,5.97c-1.79,2.59-3.12,5.76-3.98,9.51c-0.86,3.75-1.29,7.98-1.29,12.7
					c0,9.89,1.91,17.5,5.73,22.81c3.82,5.31,9.08,7.97,15.79,7.97c3.58,0,6.42-0.45,8.52-1.34c2.09-0.9,3.87-1.89,5.33-2.99
					c1.46-1.1,2.8-2.11,4.03-3.04c1.23-0.93,2.77-1.39,4.63-1.39c2.46,0,4.32,0.9,5.58,2.69l8.96,11.05
					c-3.19,3.65-6.54,6.62-10.06,8.91c-3.52,2.29-7.12,4.08-10.81,5.38c-3.68,1.29-7.39,2.19-11.1,2.69
					c-3.72,0.5-7.34,0.75-10.86,0.75c-6.31,0-12.33-1.2-18.08-3.59c-5.74-2.39-10.79-5.86-15.14-10.41
					c-4.35-4.55-7.8-10.14-10.36-16.78c-2.56-6.64-3.83-14.21-3.83-22.71c0-7.44,1.11-14.39,3.34-20.87
					c2.22-6.47,5.51-12.08,9.86-16.83c4.35-4.75,9.73-8.48,16.13-11.21c6.41-2.72,13.83-4.08,22.26-4.08c8.1,0,15.2,1.29,21.31,3.88
					c6.11,2.59,11.62,6.38,16.53,11.36L1011.36,54.68z"/>
			</g>
			<g>
				<path class="st1" d="M1040.67,133.46V68.93c0-5.91,0.93-11.35,2.79-16.33c1.86-4.98,4.53-9.28,8.02-12.9
					c3.49-3.62,7.74-6.44,12.75-8.46c5.01-2.03,10.64-3.04,16.88-3.04c8.7,0,16.85,1.34,24.45,4.03c7.6,2.69,14.53,6.79,20.77,12.3
					l-5.58,9.66c-0.86,1.53-2.04,2.8-3.54,3.83c-1.49,1.03-3.3,1.54-5.43,1.54c-2.39,0-4.45-0.4-6.17-1.2
					c-1.73-0.79-3.5-1.69-5.33-2.69c-1.83-1-3.9-1.89-6.22-2.69c-2.32-0.8-5.31-1.2-8.96-1.2c-4.58,0-8.12,1.36-10.61,4.07
					c-2.49,2.71-3.74,7.12-3.74,13.22v4.42c11.82,0,21.61,1.07,29.38,3.2c7.77,2.13,13.94,4.78,18.52,7.94
					c4.58,3.17,7.8,6.68,9.66,10.54c1.86,3.86,2.79,7.63,2.79,11.29c0,4.66-0.73,8.78-2.19,12.34c-1.46,3.56-3.54,6.54-6.22,8.94
					c-2.69,2.4-5.96,4.21-9.81,5.45c-3.85,1.23-8.13,1.85-12.85,1.85c-3.52,0-6.72-0.28-9.61-0.85c-2.89-0.56-5.61-1.43-8.17-2.59
					c-2.56-1.16-5.03-2.57-7.42-4.23c-2.39-1.66-4.88-3.59-7.47-5.78l-2.19,5.68c-1,2.53-2.24,4.18-3.73,4.98s-3.7,1.2-6.62,1.2
					H1040.67z M1098.73,112.48c1.93-1.44,2.89-3.93,2.89-7.48c0-1.81-0.45-3.48-1.34-5.02s-2.51-2.91-4.83-4.12
					c-2.32-1.21-5.48-2.21-9.46-3.02c-3.98-0.8-9.06-1.21-15.24-1.21v14.14c3.06,3.12,6.08,5.38,9.06,6.77
					c2.99,1.39,6.47,2.09,10.46,2.09C1093.99,114.64,1096.81,113.92,1098.73,112.48z"/>
			</g>
		</g>
	</g>
</g>
<g id="texto">
</g>
</svg>
